<svg aria-hidden="true" style="position:absolute;width:0;height:0;overflow:hidden" xmlns="http://www.w3.org/2000/svg"><defs><symbol id="icon-expertise" viewBox="0 0 28 32"><path fill="none" stroke="#fafafa" style="stroke:var(--color1, #fafafa)" stroke-linejoin="round" stroke-linecap="round" stroke-width="2.133" d="M22.4 22.4c0-1.489 0-2.233-.183-2.838a4.289 4.289 0 0 0-2.815-2.837l-.03-.008c-.606-.183-1.349-.183-2.838-.183h-5.333c-1.489 0-2.233 0-2.838.183a4.287 4.287 0 0 0-2.837 2.815l-.008.03c-.183.606-.183 1.349-.183 2.838m8.532-9.6a4.8 4.8 0 1 0 0-9.6v0a4.8 4.8 0 1 0 0 9.6v0z"/></symbol><symbol id="icon-execution" viewBox="0 0 32 32"><path fill="none" stroke="#fafafa" style="stroke:var(--color1, #fafafa)" stroke-linejoin="round" stroke-linecap="round" stroke-width="2.667" d="M24.217 2.667H7.782c-.616 0-1.116.5-1.116 1.116v0s0 0 0 0c0 3.7 1.5 7.05 3.924 9.474l1.627 1.627c.16.16.241.241.299.32.165.219.264.496.264.797s-.099.577-.267.8l.002-.003a3.232 3.232 0 0 1-.297.318l-.002.002-1.627 1.625a13.36 13.36 0 0 0-3.924 9.474s0 0 0 0v0c0 .616.5 1.116 1.116 1.116h16.435c.616 0 1.116-.5 1.116-1.116v0s0 0 0 0c0-3.7-1.5-7.05-3.924-9.474l-1.627-1.627c-.16-.16-.241-.241-.299-.32-.165-.219-.264-.496-.264-.797s.099-.577.267-.8l-.002.003c.057-.077.137-.157.299-.32l1.627-1.625a13.36 13.36 0 0 0 3.924-9.474s0 0 0 0v0c0-.616-.5-1.116-1.116-1.116v0z"/></symbol><symbol id="icon-communication" viewBox="0 0 32 32"><path fill="none" stroke="#fafafa" style="stroke:var(--color1, #fafafa)" stroke-linejoin="round" stroke-linecap="round" stroke-width="2.667" d="M8.125 14.972c-.08-.49-.125-1.056-.125-1.631v-.008 0C8 7.442 12.807 2.666 18.737 2.666c5.929 0 10.736 4.776 10.736 10.667 0 1.331-.245 2.605-.693 3.78-.093.243-.14.365-.16.46a1.145 1.145 0 0 0-.032.258v.001c-.003.097.011.204.037.419l.537 4.36c.057.473.087.709.008.88a.67.67 0 0 1-.338.334l-.004.002c-.173.073-.408.04-.88-.029l-4.245-.623c-.223-.032-.333-.049-.435-.048h-.009c-.091 0-.18.01-.266.03l.008-.002a3.866 3.866 0 0 0-.477.163 10.701 10.701 0 0 1-3.796.683c-.575 0-1.14-.045-1.692-.13l.061.008m-6.921 5.454c3.953 0 7.157-3.283 7.157-7.333s-3.204-7.333-7.157-7.333S3.017 17.95 3.017 22c0 .813.129 1.597.369 2.329.1.309.151.464.168.569.017.111.02.173.013.284a3.312 3.312 0 0 1-.087.468l-.815 3.683 3.993-.545c.217-.029.327-.045.421-.044.101 0 .153.007.253.027.093.017.231.067.508.164a6.848 6.848 0 0 0 2.328.399h.006z"/></symbol><symbol id="icon-close" viewBox="0 0 32 32"><path fill="none" stroke="#fafafa" style="stroke:var(--color1, #fafafa)" stroke-linejoin="round" stroke-linecap="round" stroke-width="2.667" d="M24 8 8 24M8 8l16 16"/></symbol><symbol id="icon-art" viewBox="0 0 32 32"><path fill="none" stroke="#fafafa" style="stroke:var(--color1, #fafafa)" stroke-linejoin="round" stroke-linecap="round" stroke-width="2.667" d="M17.037 20 12 14.963m-9.333 14.37c2.667 0 6.144.456 7.967-1.367a4.667 4.667 0 0 0-6.6-6.6v0c-1.823 1.823 0 5.3-1.367 7.967z"/><path fill="none" stroke="#fafafa" style="stroke:var(--color1, #fafafa)" stroke-linejoin="round" stroke-linecap="round" stroke-width="2.667" d="M10.667 21.333c-.655-.655-.983-.983-1.168-1.325a2.629 2.629 0 0 1-.32-1.267c0-.5.138-.969.378-1.369l-.007.012c.197-.335.537-.651 1.217-1.28L23.924 3.921a2.94 2.94 0 0 1 4.154 4.156l.001-.001-12.183 13.157c-.631.68-.945 1.019-1.28 1.217a2.638 2.638 0 0 1-1.357.371c-.464 0-.901-.119-1.281-.327l.014.007c-.343-.185-.671-.513-1.325-1.168z"/></symbol><symbol id="icon-arrow-right" viewBox="0 0 32 32"><path fill="none" stroke="#fafafa" style="stroke:var(--color1, #fafafa)" stroke-linejoin="round" stroke-linecap="round" stroke-width="2" d="M5.333 16h21.334m-8-8 8 8-8 8"/></symbol><symbol id="icon-arrow-left" viewBox="0 0 32 32"><path stroke-linejoin="round" stroke-linecap="round" stroke-width="2" d="M26.667 16H5.333m8 8-8-8 8-8"/></symbol><symbol id="icon-arrow-up" viewBox="0 0 32 32"><path fill="none" stroke="#fafafa" style="stroke:var(--color1, #fafafa)" stroke-width="3.2" d="m24 20-8-8-8 8"/></symbol><symbol id="icon-arrow-down" viewBox="0 0 32 32"><path fill="none" stroke="#fafafa" style="stroke:var(--color1, #fafafa)" stroke-width="3.2" d="m24 12-8 8-8-8"/></symbol></defs></svg>